<svg
  width="685"
  height="278"
  viewBox="0 0 685 278"
  fill="none"
  xmlns="http://www.w3.org/2000/svg"
>
  <g filter="url(#filter0_f_6_42)">
    <mask
      id="path-1-outside-1_6_42"
      maskUnits="userSpaceOnUse"
      x="25.7608"
      y="25"
      width="634"
      height="228"
      fill="black"
    >
      <rect fill="white" x="25.7608" y="25" width="634" height="228" />
      <path
        d="M206.733 76.7401C206.733 72.8471 208.123 69.5838 210.902 66.9503C213.801 64.3168 217.426 63 221.775 63C226.245 63 229.87 64.3168 232.649 66.9503C235.427 69.5838 236.817 72.8471 236.817 76.7401C236.817 80.5186 235.427 83.7819 232.649 86.5299C229.87 89.278 226.245 90.652 221.775 90.652C217.426 90.652 213.801 89.278 210.902 86.5299C208.123 83.7819 206.733 80.5186 206.733 76.7401Z"
      />
      <path
        d="M235.186 182.711C234.098 183.054 232.467 183.34 230.293 183.569C228.118 183.913 225.762 184.085 223.225 184.085C218.03 184.085 214.224 183.226 211.808 181.508C209.512 179.791 208.364 176.699 208.364 172.234V101.472C209.452 101.129 211.083 100.785 213.258 100.442C215.553 100.098 217.969 99.9266 220.507 99.9266C225.702 99.9266 229.447 100.785 231.743 102.503C234.038 104.106 235.186 107.255 235.186 111.949V182.711Z"
      />
      <path
        fill-rule="evenodd"
        clip-rule="evenodd"
        d="M300.148 185.459C295.557 185.459 291.449 184.886 287.825 183.741C286.424 183.343 285.095 182.919 283.838 182.469V213.454C282.63 213.798 280.938 214.141 278.763 214.485C276.589 214.828 274.233 215 271.696 215C266.621 215 262.876 214.141 260.46 212.424C258.164 210.706 257.016 207.557 257.016 202.977V117.617C257.016 114.754 257.621 112.407 258.829 110.575C260.037 108.629 261.91 106.911 264.447 105.423C268.071 103.247 272.662 101.472 278.22 100.098C283.777 98.6098 289.999 97.8655 296.886 97.8655C306.189 97.8655 314.404 99.4113 321.533 102.503C328.782 105.48 334.4 110.174 338.387 116.586C342.374 122.884 344.367 131.071 344.367 141.147C344.367 150.879 342.434 159.009 338.568 165.536C334.702 172.062 329.446 177.043 322.801 180.478C316.156 183.798 308.605 185.459 300.148 185.459ZM285.831 163.131C285.078 162.774 284.353 162.409 283.657 162.037V121.224C285.227 120.308 287.1 119.563 289.275 118.991C291.57 118.304 294.107 117.96 296.886 117.96C300.994 117.96 304.558 118.762 307.578 120.365C310.599 121.968 312.894 124.487 314.465 127.922C316.156 131.243 317.002 135.651 317.002 141.147C317.002 149.162 315.129 155.173 311.384 159.181C307.76 163.188 302.625 165.192 295.98 165.192C292.235 165.192 288.852 164.505 285.831 163.131Z"
      />
      <path
        d="M161.192 122.598C163.729 121.224 166.81 120.136 170.435 119.334C174.059 118.533 177.684 118.132 181.308 118.132C183.362 118.132 185.235 118.247 186.926 118.476C188.738 118.59 190.249 118.762 191.457 118.991C192.182 117.846 192.786 116.472 193.269 114.869C193.873 113.266 194.175 111.548 194.175 109.716C194.175 101.93 188.013 98.0373 175.69 98.0373C169.528 98.0373 163.608 98.7243 157.93 100.098C152.372 101.358 147.6 103.133 143.613 105.423C140.714 107.14 138.418 109.144 136.727 111.434C135.156 113.609 134.371 116.3 134.371 119.506V172.234C134.371 176.699 135.519 179.791 137.814 181.508C140.23 183.226 143.976 184.085 149.05 184.085C151.587 184.085 153.943 183.913 156.118 183.569C158.292 183.34 159.984 183.054 161.192 182.711V122.598Z"
      />
      <path
        d="M90.4009 155.918C90.4009 159.124 91.4883 161.471 93.663 162.959C95.8377 164.448 98.9185 165.192 102.905 165.192C104.718 165.192 106.651 165.02 108.705 164.677C110.879 164.219 112.692 163.704 114.141 163.131C115.108 164.162 115.954 165.421 116.679 166.91C117.524 168.398 117.947 170.116 117.947 172.062C117.947 175.955 116.256 179.161 112.873 181.68C109.49 184.199 103.812 185.459 95.8377 185.459C85.6891 185.459 77.7756 183.283 72.0972 178.932C66.5396 174.581 63.7608 167.482 63.7608 157.635V80.1751C64.969 79.8316 66.6604 79.4881 68.8351 79.1446C71.0098 78.6866 73.3053 78.4576 75.7217 78.4576C80.9168 78.4576 84.6621 79.3164 86.9577 81.0339C89.2532 82.7514 90.4009 85.9002 90.4009 90.4802V102.331H115.591C116.195 103.247 116.799 104.564 117.404 106.281C118.008 107.999 118.31 109.888 118.31 111.949C118.31 115.384 117.464 117.903 115.772 119.506C114.202 121.109 112.027 121.911 109.248 121.911H90.4009V155.918Z"
      />
      <path
        d="M410.727 185.802C400.82 185.802 392.302 184.142 385.174 180.821C378.167 177.386 372.73 172.635 368.864 166.566C365.118 160.498 363.246 153.398 363.246 145.269V78.4576C364.575 78.2286 366.447 77.9424 368.864 77.5989C371.28 77.2554 373.696 77.0836 376.113 77.0836C381.308 77.0836 385.053 77.9424 387.349 79.6599C389.765 81.3774 390.973 84.6407 390.973 89.4497V144.582C390.973 150.879 392.785 155.803 396.41 159.353C400.155 162.788 404.927 164.505 410.727 164.505C416.526 164.505 421.238 162.788 424.862 159.353C428.608 155.803 430.48 150.879 430.48 144.582V78.4576C431.809 78.2286 433.682 77.9424 436.098 77.5989C438.635 77.2554 441.052 77.0836 443.347 77.0836C448.542 77.0836 452.288 77.9424 454.583 79.6599C457 81.3774 458.208 84.6407 458.208 89.4497V145.269C458.208 153.398 456.335 160.498 452.59 166.566C448.844 172.635 443.408 177.386 436.279 180.821C429.151 184.142 420.634 185.802 410.727 185.802Z"
      />
      <path
        d="M621.761 182.711V89.4497C621.761 84.6407 620.613 81.3774 618.318 79.6599C616.022 77.9424 612.277 77.0836 607.082 77.0836C604.665 77.0836 602.188 77.2554 599.651 77.5989C597.235 77.9424 595.423 78.2286 594.215 78.4576V171.719C594.215 176.299 595.302 179.505 597.477 181.337C599.772 183.169 603.638 184.085 609.075 184.085C611.612 184.085 614.089 183.913 616.505 183.569C618.922 183.34 620.673 183.054 621.761 182.711Z"
      />
      <path
        fill-rule="evenodd"
        clip-rule="evenodd"
        d="M506.739 159.696C506.349 160.922 505.96 162.182 505.57 163.475C504.966 165.879 504.301 168.226 503.576 170.516C502.852 172.806 502.187 174.982 501.583 177.043C500.979 179.104 500.375 181.05 499.771 182.882C498.442 183.226 496.931 183.569 495.24 183.913C493.549 184.371 491.555 184.6 489.26 184.6C484.185 184.6 480.319 183.741 477.661 182.024C475.003 180.306 473.674 177.787 473.674 174.467C473.674 173.093 473.855 171.661 474.218 170.173C474.701 168.684 475.245 166.967 475.849 165.02C476.936 161.242 478.447 156.49 480.38 150.765C482.433 145.04 484.608 138.857 486.904 132.216C489.32 125.46 491.736 118.819 494.153 112.293C496.69 105.766 498.985 99.7548 501.039 94.2588C503.214 88.7627 504.966 84.4689 506.295 81.3774C507.986 80.3469 510.644 79.4309 514.269 78.6294C518.014 77.7134 521.699 77.2554 525.323 77.2554C530.519 77.2554 535.17 77.9996 539.278 79.4881C543.386 80.8621 545.983 83.0949 547.07 86.1864C549.366 92.255 551.843 99.2968 554.501 107.312C557.279 115.212 560.058 123.514 562.837 132.216C565.616 140.918 568.274 149.391 570.811 157.635C573.469 165.765 575.765 173.093 577.698 179.619C576.369 180.993 574.436 182.138 571.898 183.054C569.361 184.085 566.341 184.6 562.837 184.6C557.884 184.6 554.38 183.741 552.326 182.024C550.272 180.306 548.702 177.73 547.614 174.295L543.213 159.696H506.739ZM525.142 100.442H526.23C527.317 103.762 528.525 107.598 529.854 111.949C531.183 116.186 532.633 120.708 534.204 125.518C535.669 130.005 537.082 134.643 538.443 139.429H511.57C512.966 135.193 514.41 130.956 515.9 126.72C517.591 121.796 519.222 117.102 520.793 112.636C522.484 108.171 523.934 104.106 525.142 100.442Z"
      />
    </mask>
    <path
      d="M206.733 76.7401C206.733 72.8471 208.123 69.5838 210.902 66.9503C213.801 64.3168 217.426 63 221.775 63C226.245 63 229.87 64.3168 232.649 66.9503C235.427 69.5838 236.817 72.8471 236.817 76.7401C236.817 80.5186 235.427 83.7819 232.649 86.5299C229.87 89.278 226.245 90.652 221.775 90.652C217.426 90.652 213.801 89.278 210.902 86.5299C208.123 83.7819 206.733 80.5186 206.733 76.7401Z"
      fill="#CAAD90"
    />
    <path
      d="M235.186 182.711C234.098 183.054 232.467 183.34 230.293 183.569C228.118 183.913 225.762 184.085 223.225 184.085C218.03 184.085 214.224 183.226 211.808 181.508C209.512 179.791 208.364 176.699 208.364 172.234V101.472C209.452 101.129 211.083 100.785 213.258 100.442C215.553 100.098 217.969 99.9266 220.507 99.9266C225.702 99.9266 229.447 100.785 231.743 102.503C234.038 104.106 235.186 107.255 235.186 111.949V182.711Z"
      fill="#CAAD90"
    />
    <path
      fill-rule="evenodd"
      clip-rule="evenodd"
      d="M300.148 185.459C295.557 185.459 291.449 184.886 287.825 183.741C286.424 183.343 285.095 182.919 283.838 182.469V213.454C282.63 213.798 280.938 214.141 278.763 214.485C276.589 214.828 274.233 215 271.696 215C266.621 215 262.876 214.141 260.46 212.424C258.164 210.706 257.016 207.557 257.016 202.977V117.617C257.016 114.754 257.621 112.407 258.829 110.575C260.037 108.629 261.91 106.911 264.447 105.423C268.071 103.247 272.662 101.472 278.22 100.098C283.777 98.6098 289.999 97.8655 296.886 97.8655C306.189 97.8655 314.404 99.4113 321.533 102.503C328.782 105.48 334.4 110.174 338.387 116.586C342.374 122.884 344.367 131.071 344.367 141.147C344.367 150.879 342.434 159.009 338.568 165.536C334.702 172.062 329.446 177.043 322.801 180.478C316.156 183.798 308.605 185.459 300.148 185.459ZM285.831 163.131C285.078 162.774 284.353 162.409 283.657 162.037V121.224C285.227 120.308 287.1 119.563 289.275 118.991C291.57 118.304 294.107 117.96 296.886 117.96C300.994 117.96 304.558 118.762 307.578 120.365C310.599 121.968 312.894 124.487 314.465 127.922C316.156 131.243 317.002 135.651 317.002 141.147C317.002 149.162 315.129 155.173 311.384 159.181C307.76 163.188 302.625 165.192 295.98 165.192C292.235 165.192 288.852 164.505 285.831 163.131Z"
      fill="#CAAD90"
    />
    <path
      d="M161.192 122.598C163.729 121.224 166.81 120.136 170.435 119.334C174.059 118.533 177.684 118.132 181.308 118.132C183.362 118.132 185.235 118.247 186.926 118.476C188.738 118.59 190.249 118.762 191.457 118.991C192.182 117.846 192.786 116.472 193.269 114.869C193.873 113.266 194.175 111.548 194.175 109.716C194.175 101.93 188.013 98.0373 175.69 98.0373C169.528 98.0373 163.608 98.7243 157.93 100.098C152.372 101.358 147.6 103.133 143.613 105.423C140.714 107.14 138.418 109.144 136.727 111.434C135.156 113.609 134.371 116.3 134.371 119.506V172.234C134.371 176.699 135.519 179.791 137.814 181.508C140.23 183.226 143.976 184.085 149.05 184.085C151.587 184.085 153.943 183.913 156.118 183.569C158.292 183.34 159.984 183.054 161.192 182.711V122.598Z"
      fill="#CAAD90"
    />
    <path
      d="M90.4009 155.918C90.4009 159.124 91.4883 161.471 93.663 162.959C95.8377 164.448 98.9185 165.192 102.905 165.192C104.718 165.192 106.651 165.02 108.705 164.677C110.879 164.219 112.692 163.704 114.141 163.131C115.108 164.162 115.954 165.421 116.679 166.91C117.524 168.398 117.947 170.116 117.947 172.062C117.947 175.955 116.256 179.161 112.873 181.68C109.49 184.199 103.812 185.459 95.8377 185.459C85.6891 185.459 77.7756 183.283 72.0972 178.932C66.5396 174.581 63.7608 167.482 63.7608 157.635V80.1751C64.969 79.8316 66.6604 79.4881 68.8351 79.1446C71.0098 78.6866 73.3053 78.4576 75.7217 78.4576C80.9168 78.4576 84.6621 79.3164 86.9577 81.0339C89.2532 82.7514 90.4009 85.9002 90.4009 90.4802V102.331H115.591C116.195 103.247 116.799 104.564 117.404 106.281C118.008 107.999 118.31 109.888 118.31 111.949C118.31 115.384 117.464 117.903 115.772 119.506C114.202 121.109 112.027 121.911 109.248 121.911H90.4009V155.918Z"
      fill="#CAAD90"
    />
    <path
      d="M410.727 185.802C400.82 185.802 392.302 184.142 385.174 180.821C378.167 177.386 372.73 172.635 368.864 166.566C365.118 160.498 363.246 153.398 363.246 145.269V78.4576C364.575 78.2286 366.447 77.9424 368.864 77.5989C371.28 77.2554 373.696 77.0836 376.113 77.0836C381.308 77.0836 385.053 77.9424 387.349 79.6599C389.765 81.3774 390.973 84.6407 390.973 89.4497V144.582C390.973 150.879 392.785 155.803 396.41 159.353C400.155 162.788 404.927 164.505 410.727 164.505C416.526 164.505 421.238 162.788 424.862 159.353C428.608 155.803 430.48 150.879 430.48 144.582V78.4576C431.809 78.2286 433.682 77.9424 436.098 77.5989C438.635 77.2554 441.052 77.0836 443.347 77.0836C448.542 77.0836 452.288 77.9424 454.583 79.6599C457 81.3774 458.208 84.6407 458.208 89.4497V145.269C458.208 153.398 456.335 160.498 452.59 166.566C448.844 172.635 443.408 177.386 436.279 180.821C429.151 184.142 420.634 185.802 410.727 185.802Z"
      fill="#CAAD90"
    />
    <path
      d="M621.761 182.711V89.4497C621.761 84.6407 620.613 81.3774 618.318 79.6599C616.022 77.9424 612.277 77.0836 607.082 77.0836C604.665 77.0836 602.188 77.2554 599.651 77.5989C597.235 77.9424 595.423 78.2286 594.215 78.4576V171.719C594.215 176.299 595.302 179.505 597.477 181.337C599.772 183.169 603.638 184.085 609.075 184.085C611.612 184.085 614.089 183.913 616.505 183.569C618.922 183.34 620.673 183.054 621.761 182.711Z"
      fill="#CAAD90"
    />
    <path
      fill-rule="evenodd"
      clip-rule="evenodd"
      d="M506.739 159.696C506.349 160.922 505.96 162.182 505.57 163.475C504.966 165.879 504.301 168.226 503.576 170.516C502.852 172.806 502.187 174.982 501.583 177.043C500.979 179.104 500.375 181.05 499.771 182.882C498.442 183.226 496.931 183.569 495.24 183.913C493.549 184.371 491.555 184.6 489.26 184.6C484.185 184.6 480.319 183.741 477.661 182.024C475.003 180.306 473.674 177.787 473.674 174.467C473.674 173.093 473.855 171.661 474.218 170.173C474.701 168.684 475.245 166.967 475.849 165.02C476.936 161.242 478.447 156.49 480.38 150.765C482.433 145.04 484.608 138.857 486.904 132.216C489.32 125.46 491.736 118.819 494.153 112.293C496.69 105.766 498.985 99.7548 501.039 94.2588C503.214 88.7627 504.966 84.4689 506.295 81.3774C507.986 80.3469 510.644 79.4309 514.269 78.6294C518.014 77.7134 521.699 77.2554 525.323 77.2554C530.519 77.2554 535.17 77.9996 539.278 79.4881C543.386 80.8621 545.983 83.0949 547.07 86.1864C549.366 92.255 551.843 99.2968 554.501 107.312C557.279 115.212 560.058 123.514 562.837 132.216C565.616 140.918 568.274 149.391 570.811 157.635C573.469 165.765 575.765 173.093 577.698 179.619C576.369 180.993 574.436 182.138 571.898 183.054C569.361 184.085 566.341 184.6 562.837 184.6C557.884 184.6 554.38 183.741 552.326 182.024C550.272 180.306 548.702 177.73 547.614 174.295L543.213 159.696H506.739ZM525.142 100.442H526.23C527.317 103.762 528.525 107.598 529.854 111.949C531.183 116.186 532.633 120.708 534.204 125.518C535.669 130.005 537.082 134.643 538.443 139.429H511.57C512.966 135.193 514.41 130.956 515.9 126.72C517.591 121.796 519.222 117.102 520.793 112.636C522.484 108.171 523.934 104.106 525.142 100.442Z"
      fill="#CAAD90"
    />
    <path
      d="M206.733 76.7401C206.733 72.8471 208.123 69.5838 210.902 66.9503C213.801 64.3168 217.426 63 221.775 63C226.245 63 229.87 64.3168 232.649 66.9503C235.427 69.5838 236.817 72.8471 236.817 76.7401C236.817 80.5186 235.427 83.7819 232.649 86.5299C229.87 89.278 226.245 90.652 221.775 90.652C217.426 90.652 213.801 89.278 210.902 86.5299C208.123 83.7819 206.733 80.5186 206.733 76.7401Z"
      stroke="#CAAD90"
      stroke-width="76"
      stroke-linejoin="round"
      mask="url(#path-1-outside-1_6_42)"
    />
    <path
      d="M235.186 182.711C234.098 183.054 232.467 183.34 230.293 183.569C228.118 183.913 225.762 184.085 223.225 184.085C218.03 184.085 214.224 183.226 211.808 181.508C209.512 179.791 208.364 176.699 208.364 172.234V101.472C209.452 101.129 211.083 100.785 213.258 100.442C215.553 100.098 217.969 99.9266 220.507 99.9266C225.702 99.9266 229.447 100.785 231.743 102.503C234.038 104.106 235.186 107.255 235.186 111.949V182.711Z"
      stroke="#CAAD90"
      stroke-width="76"
      stroke-linejoin="round"
      mask="url(#path-1-outside-1_6_42)"
    />
    <path
      fill-rule="evenodd"
      clip-rule="evenodd"
      d="M300.148 185.459C295.557 185.459 291.449 184.886 287.825 183.741C286.424 183.343 285.095 182.919 283.838 182.469V213.454C282.63 213.798 280.938 214.141 278.763 214.485C276.589 214.828 274.233 215 271.696 215C266.621 215 262.876 214.141 260.46 212.424C258.164 210.706 257.016 207.557 257.016 202.977V117.617C257.016 114.754 257.621 112.407 258.829 110.575C260.037 108.629 261.91 106.911 264.447 105.423C268.071 103.247 272.662 101.472 278.22 100.098C283.777 98.6098 289.999 97.8655 296.886 97.8655C306.189 97.8655 314.404 99.4113 321.533 102.503C328.782 105.48 334.4 110.174 338.387 116.586C342.374 122.884 344.367 131.071 344.367 141.147C344.367 150.879 342.434 159.009 338.568 165.536C334.702 172.062 329.446 177.043 322.801 180.478C316.156 183.798 308.605 185.459 300.148 185.459ZM285.831 163.131C285.078 162.774 284.353 162.409 283.657 162.037V121.224C285.227 120.308 287.1 119.563 289.275 118.991C291.57 118.304 294.107 117.96 296.886 117.96C300.994 117.96 304.558 118.762 307.578 120.365C310.599 121.968 312.894 124.487 314.465 127.922C316.156 131.243 317.002 135.651 317.002 141.147C317.002 149.162 315.129 155.173 311.384 159.181C307.76 163.188 302.625 165.192 295.98 165.192C292.235 165.192 288.852 164.505 285.831 163.131Z"
      stroke="#CAAD90"
      stroke-width="76"
      stroke-linejoin="round"
      mask="url(#path-1-outside-1_6_42)"
    />
    <path
      d="M161.192 122.598C163.729 121.224 166.81 120.136 170.435 119.334C174.059 118.533 177.684 118.132 181.308 118.132C183.362 118.132 185.235 118.247 186.926 118.476C188.738 118.59 190.249 118.762 191.457 118.991C192.182 117.846 192.786 116.472 193.269 114.869C193.873 113.266 194.175 111.548 194.175 109.716C194.175 101.93 188.013 98.0373 175.69 98.0373C169.528 98.0373 163.608 98.7243 157.93 100.098C152.372 101.358 147.6 103.133 143.613 105.423C140.714 107.14 138.418 109.144 136.727 111.434C135.156 113.609 134.371 116.3 134.371 119.506V172.234C134.371 176.699 135.519 179.791 137.814 181.508C140.23 183.226 143.976 184.085 149.05 184.085C151.587 184.085 153.943 183.913 156.118 183.569C158.292 183.34 159.984 183.054 161.192 182.711V122.598Z"
      stroke="#CAAD90"
      stroke-width="76"
      stroke-linejoin="round"
      mask="url(#path-1-outside-1_6_42)"
    />
    <path
      d="M90.4009 155.918C90.4009 159.124 91.4883 161.471 93.663 162.959C95.8377 164.448 98.9185 165.192 102.905 165.192C104.718 165.192 106.651 165.02 108.705 164.677C110.879 164.219 112.692 163.704 114.141 163.131C115.108 164.162 115.954 165.421 116.679 166.91C117.524 168.398 117.947 170.116 117.947 172.062C117.947 175.955 116.256 179.161 112.873 181.68C109.49 184.199 103.812 185.459 95.8377 185.459C85.6891 185.459 77.7756 183.283 72.0972 178.932C66.5396 174.581 63.7608 167.482 63.7608 157.635V80.1751C64.969 79.8316 66.6604 79.4881 68.8351 79.1446C71.0098 78.6866 73.3053 78.4576 75.7217 78.4576C80.9168 78.4576 84.6621 79.3164 86.9577 81.0339C89.2532 82.7514 90.4009 85.9002 90.4009 90.4802V102.331H115.591C116.195 103.247 116.799 104.564 117.404 106.281C118.008 107.999 118.31 109.888 118.31 111.949C118.31 115.384 117.464 117.903 115.772 119.506C114.202 121.109 112.027 121.911 109.248 121.911H90.4009V155.918Z"
      stroke="#CAAD90"
      stroke-width="76"
      stroke-linejoin="round"
      mask="url(#path-1-outside-1_6_42)"
    />
    <path
      d="M410.727 185.802C400.82 185.802 392.302 184.142 385.174 180.821C378.167 177.386 372.73 172.635 368.864 166.566C365.118 160.498 363.246 153.398 363.246 145.269V78.4576C364.575 78.2286 366.447 77.9424 368.864 77.5989C371.28 77.2554 373.696 77.0836 376.113 77.0836C381.308 77.0836 385.053 77.9424 387.349 79.6599C389.765 81.3774 390.973 84.6407 390.973 89.4497V144.582C390.973 150.879 392.785 155.803 396.41 159.353C400.155 162.788 404.927 164.505 410.727 164.505C416.526 164.505 421.238 162.788 424.862 159.353C428.608 155.803 430.48 150.879 430.48 144.582V78.4576C431.809 78.2286 433.682 77.9424 436.098 77.5989C438.635 77.2554 441.052 77.0836 443.347 77.0836C448.542 77.0836 452.288 77.9424 454.583 79.6599C457 81.3774 458.208 84.6407 458.208 89.4497V145.269C458.208 153.398 456.335 160.498 452.59 166.566C448.844 172.635 443.408 177.386 436.279 180.821C429.151 184.142 420.634 185.802 410.727 185.802Z"
      stroke="#CAAD90"
      stroke-width="76"
      stroke-linejoin="round"
      mask="url(#path-1-outside-1_6_42)"
    />
    <path
      d="M621.761 182.711V89.4497C621.761 84.6407 620.613 81.3774 618.318 79.6599C616.022 77.9424 612.277 77.0836 607.082 77.0836C604.665 77.0836 602.188 77.2554 599.651 77.5989C597.235 77.9424 595.423 78.2286 594.215 78.4576V171.719C594.215 176.299 595.302 179.505 597.477 181.337C599.772 183.169 603.638 184.085 609.075 184.085C611.612 184.085 614.089 183.913 616.505 183.569C618.922 183.34 620.673 183.054 621.761 182.711Z"
      stroke="#CAAD90"
      stroke-width="76"
      stroke-linejoin="round"
      mask="url(#path-1-outside-1_6_42)"
    />
    <path
      fill-rule="evenodd"
      clip-rule="evenodd"
      d="M506.739 159.696C506.349 160.922 505.96 162.182 505.57 163.475C504.966 165.879 504.301 168.226 503.576 170.516C502.852 172.806 502.187 174.982 501.583 177.043C500.979 179.104 500.375 181.05 499.771 182.882C498.442 183.226 496.931 183.569 495.24 183.913C493.549 184.371 491.555 184.6 489.26 184.6C484.185 184.6 480.319 183.741 477.661 182.024C475.003 180.306 473.674 177.787 473.674 174.467C473.674 173.093 473.855 171.661 474.218 170.173C474.701 168.684 475.245 166.967 475.849 165.02C476.936 161.242 478.447 156.49 480.38 150.765C482.433 145.04 484.608 138.857 486.904 132.216C489.32 125.46 491.736 118.819 494.153 112.293C496.69 105.766 498.985 99.7548 501.039 94.2588C503.214 88.7627 504.966 84.4689 506.295 81.3774C507.986 80.3469 510.644 79.4309 514.269 78.6294C518.014 77.7134 521.699 77.2554 525.323 77.2554C530.519 77.2554 535.17 77.9996 539.278 79.4881C543.386 80.8621 545.983 83.0949 547.07 86.1864C549.366 92.255 551.843 99.2968 554.501 107.312C557.279 115.212 560.058 123.514 562.837 132.216C565.616 140.918 568.274 149.391 570.811 157.635C573.469 165.765 575.765 173.093 577.698 179.619C576.369 180.993 574.436 182.138 571.898 183.054C569.361 184.085 566.341 184.6 562.837 184.6C557.884 184.6 554.38 183.741 552.326 182.024C550.272 180.306 548.702 177.73 547.614 174.295L543.213 159.696H506.739ZM525.142 100.442H526.23C527.317 103.762 528.525 107.598 529.854 111.949C531.183 116.186 532.633 120.708 534.204 125.518C535.669 130.005 537.082 134.643 538.443 139.429H511.57C512.966 135.193 514.41 130.956 515.9 126.72C517.591 121.796 519.222 117.102 520.793 112.636C522.484 108.171 523.934 104.106 525.142 100.442Z"
      stroke="#CAAD90"
      stroke-width="76"
      stroke-linejoin="round"
      mask="url(#path-1-outside-1_6_42)"
    />
  </g>
  <mask
    id="path-2-outside-2_6_42"
    maskUnits="userSpaceOnUse"
    x="56.7608"
    y="56"
    width="572"
    height="166"
    fill="black"
  >
    <rect fill="white" x="56.7608" y="56" width="572" height="166" />
    <path
      d="M206.733 76.7401C206.733 72.8471 208.123 69.5838 210.902 66.9503C213.801 64.3168 217.426 63 221.775 63C226.245 63 229.87 64.3168 232.649 66.9503C235.427 69.5838 236.817 72.8471 236.817 76.7401C236.817 80.5186 235.427 83.7819 232.649 86.5299C229.87 89.278 226.245 90.652 221.775 90.652C217.426 90.652 213.801 89.278 210.902 86.5299C208.123 83.7819 206.733 80.5186 206.733 76.7401Z"
    />
    <path
      d="M235.186 182.711C234.098 183.054 232.467 183.34 230.293 183.569C228.118 183.913 225.762 184.085 223.225 184.085C218.03 184.085 214.224 183.226 211.808 181.508C209.512 179.791 208.364 176.699 208.364 172.234V101.472C209.452 101.129 211.083 100.785 213.258 100.442C215.553 100.098 217.969 99.9266 220.507 99.9266C225.702 99.9266 229.447 100.785 231.743 102.503C234.038 104.106 235.186 107.255 235.186 111.949V182.711Z"
    />
    <path
      fill-rule="evenodd"
      clip-rule="evenodd"
      d="M300.148 185.459C295.557 185.459 291.449 184.886 287.825 183.741C286.424 183.343 285.095 182.919 283.838 182.469V213.454C282.63 213.798 280.938 214.141 278.763 214.485C276.589 214.828 274.233 215 271.696 215C266.621 215 262.876 214.141 260.46 212.424C258.164 210.706 257.016 207.557 257.016 202.977V117.617C257.016 114.754 257.621 112.407 258.829 110.575C260.037 108.629 261.91 106.911 264.447 105.423C268.071 103.247 272.662 101.472 278.22 100.098C283.777 98.6098 289.999 97.8655 296.886 97.8655C306.189 97.8655 314.404 99.4113 321.533 102.503C328.782 105.48 334.4 110.174 338.387 116.586C342.374 122.884 344.367 131.071 344.367 141.147C344.367 150.879 342.434 159.009 338.568 165.536C334.702 172.062 329.446 177.043 322.801 180.478C316.156 183.798 308.605 185.459 300.148 185.459ZM285.831 163.131C285.078 162.774 284.353 162.409 283.657 162.037V121.224C285.227 120.308 287.1 119.563 289.275 118.991C291.57 118.304 294.107 117.96 296.886 117.96C300.994 117.96 304.558 118.762 307.578 120.365C310.599 121.968 312.894 124.487 314.465 127.922C316.156 131.243 317.002 135.651 317.002 141.147C317.002 149.162 315.129 155.173 311.384 159.181C307.76 163.188 302.625 165.192 295.98 165.192C292.235 165.192 288.852 164.505 285.831 163.131Z"
    />
    <path
      d="M161.192 122.598C163.729 121.224 166.81 120.136 170.435 119.334C174.059 118.533 177.684 118.132 181.308 118.132C183.362 118.132 185.235 118.247 186.926 118.476C188.738 118.59 190.249 118.762 191.457 118.991C192.182 117.846 192.786 116.472 193.269 114.869C193.873 113.266 194.175 111.548 194.175 109.716C194.175 101.93 188.013 98.0373 175.69 98.0373C169.528 98.0373 163.608 98.7243 157.93 100.098C152.372 101.358 147.6 103.133 143.613 105.423C140.714 107.14 138.418 109.144 136.727 111.434C135.156 113.609 134.371 116.3 134.371 119.506V172.234C134.371 176.699 135.519 179.791 137.814 181.508C140.23 183.226 143.976 184.085 149.05 184.085C151.587 184.085 153.943 183.913 156.118 183.569C158.292 183.34 159.984 183.054 161.192 182.711V122.598Z"
    />
    <path
      d="M90.4009 155.918C90.4009 159.124 91.4883 161.471 93.663 162.959C95.8377 164.448 98.9185 165.192 102.905 165.192C104.718 165.192 106.651 165.02 108.705 164.677C110.879 164.219 112.692 163.704 114.141 163.131C115.108 164.162 115.954 165.421 116.679 166.91C117.524 168.398 117.947 170.116 117.947 172.062C117.947 175.955 116.256 179.161 112.873 181.68C109.49 184.199 103.812 185.459 95.8377 185.459C85.6891 185.459 77.7756 183.283 72.0972 178.932C66.5396 174.581 63.7608 167.482 63.7608 157.635V80.1751C64.969 79.8316 66.6604 79.4881 68.8351 79.1446C71.0098 78.6866 73.3053 78.4576 75.7217 78.4576C80.9168 78.4576 84.6621 79.3164 86.9577 81.0339C89.2532 82.7514 90.4009 85.9002 90.4009 90.4802V102.331H115.591C116.195 103.247 116.799 104.564 117.404 106.281C118.008 107.999 118.31 109.888 118.31 111.949C118.31 115.384 117.464 117.903 115.772 119.506C114.202 121.109 112.027 121.911 109.248 121.911H90.4009V155.918Z"
    />
    <path
      d="M410.727 185.802C400.82 185.802 392.302 184.142 385.174 180.821C378.167 177.386 372.73 172.635 368.864 166.566C365.118 160.498 363.246 153.398 363.246 145.269V78.4576C364.575 78.2286 366.447 77.9424 368.864 77.5989C371.28 77.2554 373.696 77.0836 376.113 77.0836C381.308 77.0836 385.053 77.9424 387.349 79.6599C389.765 81.3774 390.973 84.6407 390.973 89.4497V144.582C390.973 150.879 392.785 155.803 396.41 159.353C400.155 162.788 404.927 164.505 410.727 164.505C416.526 164.505 421.238 162.788 424.862 159.353C428.608 155.803 430.48 150.879 430.48 144.582V78.4576C431.809 78.2286 433.682 77.9424 436.098 77.5989C438.635 77.2554 441.052 77.0836 443.347 77.0836C448.542 77.0836 452.288 77.9424 454.583 79.6599C457 81.3774 458.208 84.6407 458.208 89.4497V145.269C458.208 153.398 456.335 160.498 452.59 166.566C448.844 172.635 443.408 177.386 436.279 180.821C429.151 184.142 420.634 185.802 410.727 185.802Z"
    />
    <path
      d="M621.761 182.711V89.4497C621.761 84.6407 620.613 81.3774 618.318 79.6599C616.022 77.9424 612.277 77.0836 607.082 77.0836C604.665 77.0836 602.188 77.2554 599.651 77.5989C597.235 77.9424 595.423 78.2286 594.215 78.4576V171.719C594.215 176.299 595.302 179.505 597.477 181.337C599.772 183.169 603.638 184.085 609.075 184.085C611.612 184.085 614.089 183.913 616.505 183.569C618.922 183.34 620.673 183.054 621.761 182.711Z"
    />
    <path
      fill-rule="evenodd"
      clip-rule="evenodd"
      d="M506.739 159.696C506.349 160.922 505.96 162.182 505.57 163.475C504.966 165.879 504.301 168.226 503.576 170.516C502.852 172.806 502.187 174.982 501.583 177.043C500.979 179.104 500.375 181.05 499.771 182.882C498.442 183.226 496.931 183.569 495.24 183.913C493.549 184.371 491.555 184.6 489.26 184.6C484.185 184.6 480.319 183.741 477.661 182.024C475.003 180.306 473.674 177.787 473.674 174.467C473.674 173.093 473.855 171.661 474.218 170.173C474.701 168.684 475.245 166.967 475.849 165.02C476.936 161.242 478.447 156.49 480.38 150.765C482.433 145.04 484.608 138.857 486.904 132.216C489.32 125.46 491.736 118.819 494.153 112.293C496.69 105.766 498.985 99.7548 501.039 94.2588C503.214 88.7627 504.966 84.4689 506.295 81.3774C507.986 80.3469 510.644 79.4309 514.269 78.6294C518.014 77.7134 521.699 77.2554 525.323 77.2554C530.519 77.2554 535.17 77.9996 539.278 79.4881C543.386 80.8621 545.983 83.0949 547.07 86.1864C549.366 92.255 551.843 99.2968 554.501 107.312C557.28 115.212 560.058 123.514 562.837 132.216C565.616 140.918 568.274 149.391 570.811 157.635C573.469 165.765 575.765 173.093 577.698 179.619C576.369 180.993 574.436 182.138 571.898 183.054C569.361 184.085 566.341 184.6 562.837 184.6C557.884 184.6 554.38 183.741 552.326 182.024C550.272 180.306 548.702 177.73 547.614 174.295L543.213 159.696H506.739ZM525.142 100.442H526.23C527.317 103.762 528.525 107.598 529.854 111.949C531.183 116.186 532.633 120.708 534.203 125.518C535.669 130.005 537.082 134.643 538.443 139.429H511.57C512.966 135.193 514.41 130.956 515.9 126.72C517.591 121.796 519.222 117.102 520.793 112.636C522.484 108.171 523.934 104.106 525.142 100.442Z"
    />
  </mask>
  <path
    d="M206.733 76.7401C206.733 72.8471 208.123 69.5838 210.902 66.9503C213.801 64.3168 217.426 63 221.775 63C226.245 63 229.87 64.3168 232.649 66.9503C235.427 69.5838 236.817 72.8471 236.817 76.7401C236.817 80.5186 235.427 83.7819 232.649 86.5299C229.87 89.278 226.245 90.652 221.775 90.652C217.426 90.652 213.801 89.278 210.902 86.5299C208.123 83.7819 206.733 80.5186 206.733 76.7401Z"
    fill="#CAAD90"
  />
  <path
    d="M235.186 182.711C234.098 183.054 232.467 183.34 230.293 183.569C228.118 183.913 225.762 184.085 223.225 184.085C218.03 184.085 214.224 183.226 211.808 181.508C209.512 179.791 208.364 176.699 208.364 172.234V101.472C209.452 101.129 211.083 100.785 213.258 100.442C215.553 100.098 217.969 99.9266 220.507 99.9266C225.702 99.9266 229.447 100.785 231.743 102.503C234.038 104.106 235.186 107.255 235.186 111.949V182.711Z"
    fill="#CAAD90"
  />
  <path
    fill-rule="evenodd"
    clip-rule="evenodd"
    d="M300.148 185.459C295.557 185.459 291.449 184.886 287.825 183.741C286.424 183.343 285.095 182.919 283.838 182.469V213.454C282.63 213.798 280.938 214.141 278.763 214.485C276.589 214.828 274.233 215 271.696 215C266.621 215 262.876 214.141 260.46 212.424C258.164 210.706 257.016 207.557 257.016 202.977V117.617C257.016 114.754 257.621 112.407 258.829 110.575C260.037 108.629 261.91 106.911 264.447 105.423C268.071 103.247 272.662 101.472 278.22 100.098C283.777 98.6098 289.999 97.8655 296.886 97.8655C306.189 97.8655 314.404 99.4113 321.533 102.503C328.782 105.48 334.4 110.174 338.387 116.586C342.374 122.884 344.367 131.071 344.367 141.147C344.367 150.879 342.434 159.009 338.568 165.536C334.702 172.062 329.446 177.043 322.801 180.478C316.156 183.798 308.605 185.459 300.148 185.459ZM285.831 163.131C285.078 162.774 284.353 162.409 283.657 162.037V121.224C285.227 120.308 287.1 119.563 289.275 118.991C291.57 118.304 294.107 117.96 296.886 117.96C300.994 117.96 304.558 118.762 307.578 120.365C310.599 121.968 312.894 124.487 314.465 127.922C316.156 131.243 317.002 135.651 317.002 141.147C317.002 149.162 315.129 155.173 311.384 159.181C307.76 163.188 302.625 165.192 295.98 165.192C292.235 165.192 288.852 164.505 285.831 163.131Z"
    fill="#CAAD90"
  />
  <path
    d="M161.192 122.598C163.729 121.224 166.81 120.136 170.435 119.334C174.059 118.533 177.684 118.132 181.308 118.132C183.362 118.132 185.235 118.247 186.926 118.476C188.738 118.59 190.249 118.762 191.457 118.991C192.182 117.846 192.786 116.472 193.269 114.869C193.873 113.266 194.175 111.548 194.175 109.716C194.175 101.93 188.013 98.0373 175.69 98.0373C169.528 98.0373 163.608 98.7243 157.93 100.098C152.372 101.358 147.6 103.133 143.613 105.423C140.714 107.14 138.418 109.144 136.727 111.434C135.156 113.609 134.371 116.3 134.371 119.506V172.234C134.371 176.699 135.519 179.791 137.814 181.508C140.23 183.226 143.976 184.085 149.05 184.085C151.587 184.085 153.943 183.913 156.118 183.569C158.292 183.34 159.984 183.054 161.192 182.711V122.598Z"
    fill="#CAAD90"
  />
  <path
    d="M90.4009 155.918C90.4009 159.124 91.4883 161.471 93.663 162.959C95.8377 164.448 98.9185 165.192 102.905 165.192C104.718 165.192 106.651 165.02 108.705 164.677C110.879 164.219 112.692 163.704 114.141 163.131C115.108 164.162 115.954 165.421 116.679 166.91C117.524 168.398 117.947 170.116 117.947 172.062C117.947 175.955 116.256 179.161 112.873 181.68C109.49 184.199 103.812 185.459 95.8377 185.459C85.6891 185.459 77.7756 183.283 72.0972 178.932C66.5396 174.581 63.7608 167.482 63.7608 157.635V80.1751C64.969 79.8316 66.6604 79.4881 68.8351 79.1446C71.0098 78.6866 73.3053 78.4576 75.7217 78.4576C80.9168 78.4576 84.6621 79.3164 86.9577 81.0339C89.2532 82.7514 90.4009 85.9002 90.4009 90.4802V102.331H115.591C116.195 103.247 116.799 104.564 117.404 106.281C118.008 107.999 118.31 109.888 118.31 111.949C118.31 115.384 117.464 117.903 115.772 119.506C114.202 121.109 112.027 121.911 109.248 121.911H90.4009V155.918Z"
    fill="#CAAD90"
  />
  <path
    d="M410.727 185.802C400.82 185.802 392.302 184.142 385.174 180.821C378.167 177.386 372.73 172.635 368.864 166.566C365.118 160.498 363.246 153.398 363.246 145.269V78.4576C364.575 78.2286 366.447 77.9424 368.864 77.5989C371.28 77.2554 373.696 77.0836 376.113 77.0836C381.308 77.0836 385.053 77.9424 387.349 79.6599C389.765 81.3774 390.973 84.6407 390.973 89.4497V144.582C390.973 150.879 392.785 155.803 396.41 159.353C400.155 162.788 404.927 164.505 410.727 164.505C416.526 164.505 421.238 162.788 424.862 159.353C428.608 155.803 430.48 150.879 430.48 144.582V78.4576C431.809 78.2286 433.682 77.9424 436.098 77.5989C438.635 77.2554 441.052 77.0836 443.347 77.0836C448.542 77.0836 452.288 77.9424 454.583 79.6599C457 81.3774 458.208 84.6407 458.208 89.4497V145.269C458.208 153.398 456.335 160.498 452.59 166.566C448.844 172.635 443.408 177.386 436.279 180.821C429.151 184.142 420.634 185.802 410.727 185.802Z"
    fill="#CAAD90"
  />
  <path
    d="M621.761 182.711V89.4497C621.761 84.6407 620.613 81.3774 618.318 79.6599C616.022 77.9424 612.277 77.0836 607.082 77.0836C604.665 77.0836 602.188 77.2554 599.651 77.5989C597.235 77.9424 595.423 78.2286 594.215 78.4576V171.719C594.215 176.299 595.302 179.505 597.477 181.337C599.772 183.169 603.638 184.085 609.075 184.085C611.612 184.085 614.089 183.913 616.505 183.569C618.922 183.34 620.673 183.054 621.761 182.711Z"
    fill="#CAAD90"
  />
  <path
    fill-rule="evenodd"
    clip-rule="evenodd"
    d="M506.739 159.696C506.349 160.922 505.96 162.182 505.57 163.475C504.966 165.879 504.301 168.226 503.576 170.516C502.852 172.806 502.187 174.982 501.583 177.043C500.979 179.104 500.375 181.05 499.771 182.882C498.442 183.226 496.931 183.569 495.24 183.913C493.549 184.371 491.555 184.6 489.26 184.6C484.185 184.6 480.319 183.741 477.661 182.024C475.003 180.306 473.674 177.787 473.674 174.467C473.674 173.093 473.855 171.661 474.218 170.173C474.701 168.684 475.245 166.967 475.849 165.02C476.936 161.242 478.447 156.49 480.38 150.765C482.433 145.04 484.608 138.857 486.904 132.216C489.32 125.46 491.736 118.819 494.153 112.293C496.69 105.766 498.985 99.7548 501.039 94.2588C503.214 88.7627 504.966 84.4689 506.295 81.3774C507.986 80.3469 510.644 79.4309 514.269 78.6294C518.014 77.7134 521.699 77.2554 525.323 77.2554C530.519 77.2554 535.17 77.9996 539.278 79.4881C543.386 80.8621 545.983 83.0949 547.07 86.1864C549.366 92.255 551.843 99.2968 554.501 107.312C557.28 115.212 560.058 123.514 562.837 132.216C565.616 140.918 568.274 149.391 570.811 157.635C573.469 165.765 575.765 173.093 577.698 179.619C576.369 180.993 574.436 182.138 571.898 183.054C569.361 184.085 566.341 184.6 562.837 184.6C557.884 184.6 554.38 183.741 552.326 182.024C550.272 180.306 548.702 177.73 547.614 174.295L543.213 159.696H506.739ZM525.142 100.442H526.23C527.317 103.762 528.525 107.598 529.854 111.949C531.183 116.186 532.633 120.708 534.203 125.518C535.669 130.005 537.082 134.643 538.443 139.429H511.57C512.966 135.193 514.41 130.956 515.9 126.72C517.591 121.796 519.222 117.102 520.793 112.636C522.484 108.171 523.934 104.106 525.142 100.442Z"
    fill="#CAAD90"
  />
  <path
    d="M206.733 76.7401C206.733 72.8471 208.123 69.5838 210.902 66.9503C213.801 64.3168 217.426 63 221.775 63C226.245 63 229.87 64.3168 232.649 66.9503C235.427 69.5838 236.817 72.8471 236.817 76.7401C236.817 80.5186 235.427 83.7819 232.649 86.5299C229.87 89.278 226.245 90.652 221.775 90.652C217.426 90.652 213.801 89.278 210.902 86.5299C208.123 83.7819 206.733 80.5186 206.733 76.7401Z"
    stroke="#CAAD90"
    stroke-width="14"
    stroke-linejoin="round"
    mask="url(#path-2-outside-2_6_42)"
  />
  <path
    d="M235.186 182.711C234.098 183.054 232.467 183.34 230.293 183.569C228.118 183.913 225.762 184.085 223.225 184.085C218.03 184.085 214.224 183.226 211.808 181.508C209.512 179.791 208.364 176.699 208.364 172.234V101.472C209.452 101.129 211.083 100.785 213.258 100.442C215.553 100.098 217.969 99.9266 220.507 99.9266C225.702 99.9266 229.447 100.785 231.743 102.503C234.038 104.106 235.186 107.255 235.186 111.949V182.711Z"
    stroke="#CAAD90"
    stroke-width="14"
    stroke-linejoin="round"
    mask="url(#path-2-outside-2_6_42)"
  />
  <path
    fill-rule="evenodd"
    clip-rule="evenodd"
    d="M300.148 185.459C295.557 185.459 291.449 184.886 287.825 183.741C286.424 183.343 285.095 182.919 283.838 182.469V213.454C282.63 213.798 280.938 214.141 278.763 214.485C276.589 214.828 274.233 215 271.696 215C266.621 215 262.876 214.141 260.46 212.424C258.164 210.706 257.016 207.557 257.016 202.977V117.617C257.016 114.754 257.621 112.407 258.829 110.575C260.037 108.629 261.91 106.911 264.447 105.423C268.071 103.247 272.662 101.472 278.22 100.098C283.777 98.6098 289.999 97.8655 296.886 97.8655C306.189 97.8655 314.404 99.4113 321.533 102.503C328.782 105.48 334.4 110.174 338.387 116.586C342.374 122.884 344.367 131.071 344.367 141.147C344.367 150.879 342.434 159.009 338.568 165.536C334.702 172.062 329.446 177.043 322.801 180.478C316.156 183.798 308.605 185.459 300.148 185.459ZM285.831 163.131C285.078 162.774 284.353 162.409 283.657 162.037V121.224C285.227 120.308 287.1 119.563 289.275 118.991C291.57 118.304 294.107 117.96 296.886 117.96C300.994 117.96 304.558 118.762 307.578 120.365C310.599 121.968 312.894 124.487 314.465 127.922C316.156 131.243 317.002 135.651 317.002 141.147C317.002 149.162 315.129 155.173 311.384 159.181C307.76 163.188 302.625 165.192 295.98 165.192C292.235 165.192 288.852 164.505 285.831 163.131Z"
    stroke="#CAAD90"
    stroke-width="14"
    stroke-linejoin="round"
    mask="url(#path-2-outside-2_6_42)"
  />
  <path
    d="M161.192 122.598C163.729 121.224 166.81 120.136 170.435 119.334C174.059 118.533 177.684 118.132 181.308 118.132C183.362 118.132 185.235 118.247 186.926 118.476C188.738 118.59 190.249 118.762 191.457 118.991C192.182 117.846 192.786 116.472 193.269 114.869C193.873 113.266 194.175 111.548 194.175 109.716C194.175 101.93 188.013 98.0373 175.69 98.0373C169.528 98.0373 163.608 98.7243 157.93 100.098C152.372 101.358 147.6 103.133 143.613 105.423C140.714 107.14 138.418 109.144 136.727 111.434C135.156 113.609 134.371 116.3 134.371 119.506V172.234C134.371 176.699 135.519 179.791 137.814 181.508C140.23 183.226 143.976 184.085 149.05 184.085C151.587 184.085 153.943 183.913 156.118 183.569C158.292 183.34 159.984 183.054 161.192 182.711V122.598Z"
    stroke="#CAAD90"
    stroke-width="14"
    stroke-linejoin="round"
    mask="url(#path-2-outside-2_6_42)"
  />
  <path
    d="M90.4009 155.918C90.4009 159.124 91.4883 161.471 93.663 162.959C95.8377 164.448 98.9185 165.192 102.905 165.192C104.718 165.192 106.651 165.02 108.705 164.677C110.879 164.219 112.692 163.704 114.141 163.131C115.108 164.162 115.954 165.421 116.679 166.91C117.524 168.398 117.947 170.116 117.947 172.062C117.947 175.955 116.256 179.161 112.873 181.68C109.49 184.199 103.812 185.459 95.8377 185.459C85.6891 185.459 77.7756 183.283 72.0972 178.932C66.5396 174.581 63.7608 167.482 63.7608 157.635V80.1751C64.969 79.8316 66.6604 79.4881 68.8351 79.1446C71.0098 78.6866 73.3053 78.4576 75.7217 78.4576C80.9168 78.4576 84.6621 79.3164 86.9577 81.0339C89.2532 82.7514 90.4009 85.9002 90.4009 90.4802V102.331H115.591C116.195 103.247 116.799 104.564 117.404 106.281C118.008 107.999 118.31 109.888 118.31 111.949C118.31 115.384 117.464 117.903 115.772 119.506C114.202 121.109 112.027 121.911 109.248 121.911H90.4009V155.918Z"
    stroke="#CAAD90"
    stroke-width="14"
    stroke-linejoin="round"
    mask="url(#path-2-outside-2_6_42)"
  />
  <path
    d="M410.727 185.802C400.82 185.802 392.302 184.142 385.174 180.821C378.167 177.386 372.73 172.635 368.864 166.566C365.118 160.498 363.246 153.398 363.246 145.269V78.4576C364.575 78.2286 366.447 77.9424 368.864 77.5989C371.28 77.2554 373.696 77.0836 376.113 77.0836C381.308 77.0836 385.053 77.9424 387.349 79.6599C389.765 81.3774 390.973 84.6407 390.973 89.4497V144.582C390.973 150.879 392.785 155.803 396.41 159.353C400.155 162.788 404.927 164.505 410.727 164.505C416.526 164.505 421.238 162.788 424.862 159.353C428.608 155.803 430.48 150.879 430.48 144.582V78.4576C431.809 78.2286 433.682 77.9424 436.098 77.5989C438.635 77.2554 441.052 77.0836 443.347 77.0836C448.542 77.0836 452.288 77.9424 454.583 79.6599C457 81.3774 458.208 84.6407 458.208 89.4497V145.269C458.208 153.398 456.335 160.498 452.59 166.566C448.844 172.635 443.408 177.386 436.279 180.821C429.151 184.142 420.634 185.802 410.727 185.802Z"
    stroke="#CAAD90"
    stroke-width="14"
    stroke-linejoin="round"
    mask="url(#path-2-outside-2_6_42)"
  />
  <path
    d="M621.761 182.711V89.4497C621.761 84.6407 620.613 81.3774 618.318 79.6599C616.022 77.9424 612.277 77.0836 607.082 77.0836C604.665 77.0836 602.188 77.2554 599.651 77.5989C597.235 77.9424 595.423 78.2286 594.215 78.4576V171.719C594.215 176.299 595.302 179.505 597.477 181.337C599.772 183.169 603.638 184.085 609.075 184.085C611.612 184.085 614.089 183.913 616.505 183.569C618.922 183.34 620.673 183.054 621.761 182.711Z"
    stroke="#CAAD90"
    stroke-width="14"
    stroke-linejoin="round"
    mask="url(#path-2-outside-2_6_42)"
  />
  <path
    fill-rule="evenodd"
    clip-rule="evenodd"
    d="M506.739 159.696C506.349 160.922 505.96 162.182 505.57 163.475C504.966 165.879 504.301 168.226 503.576 170.516C502.852 172.806 502.187 174.982 501.583 177.043C500.979 179.104 500.375 181.05 499.771 182.882C498.442 183.226 496.931 183.569 495.24 183.913C493.549 184.371 491.555 184.6 489.26 184.6C484.185 184.6 480.319 183.741 477.661 182.024C475.003 180.306 473.674 177.787 473.674 174.467C473.674 173.093 473.855 171.661 474.218 170.173C474.701 168.684 475.245 166.967 475.849 165.02C476.936 161.242 478.447 156.49 480.38 150.765C482.433 145.04 484.608 138.857 486.904 132.216C489.32 125.46 491.736 118.819 494.153 112.293C496.69 105.766 498.985 99.7548 501.039 94.2588C503.214 88.7627 504.966 84.4689 506.295 81.3774C507.986 80.3469 510.644 79.4309 514.269 78.6294C518.014 77.7134 521.699 77.2554 525.323 77.2554C530.519 77.2554 535.17 77.9996 539.278 79.4881C543.386 80.8621 545.983 83.0949 547.07 86.1864C549.366 92.255 551.843 99.2968 554.501 107.312C557.28 115.212 560.058 123.514 562.837 132.216C565.616 140.918 568.274 149.391 570.811 157.635C573.469 165.765 575.765 173.093 577.698 179.619C576.369 180.993 574.436 182.138 571.898 183.054C569.361 184.085 566.341 184.6 562.837 184.6C557.884 184.6 554.38 183.741 552.326 182.024C550.272 180.306 548.702 177.73 547.614 174.295L543.213 159.696H506.739ZM525.142 100.442H526.23C527.317 103.762 528.525 107.598 529.854 111.949C531.183 116.186 532.633 120.708 534.203 125.518C535.669 130.005 537.082 134.643 538.443 139.429H511.57C512.966 135.193 514.41 130.956 515.9 126.72C517.591 121.796 519.222 117.102 520.793 112.636C522.484 108.171 523.934 104.106 525.142 100.442Z"
    stroke="#CAAD90"
    stroke-width="14"
    stroke-linejoin="round"
    mask="url(#path-2-outside-2_6_42)"
  />
  <mask
    id="mask0_6_42"
    style="mask-type: alpha"
    maskUnits="userSpaceOnUse"
    x="63"
    y="63"
    width="559"
    height="152"
  >
    <path
      d="M206.733 76.7401C206.733 72.8471 208.123 69.5838 210.902 66.9503C213.801 64.3168 217.426 63 221.775 63C226.245 63 229.87 64.3168 232.649 66.9503C235.427 69.5838 236.817 72.8471 236.817 76.7401C236.817 80.5186 235.427 83.7819 232.649 86.5299C229.87 89.278 226.245 90.652 221.775 90.652C217.426 90.652 213.801 89.278 210.902 86.5299C208.123 83.7819 206.733 80.5186 206.733 76.7401Z"
      fill="#0C2716"
    />
    <path
      d="M235.186 182.711C234.098 183.054 232.467 183.34 230.293 183.569C228.118 183.913 225.762 184.085 223.225 184.085C218.03 184.085 214.224 183.226 211.808 181.508C209.512 179.791 208.364 176.699 208.364 172.234V101.472C209.452 101.129 211.083 100.785 213.258 100.442C215.553 100.098 217.969 99.9266 220.507 99.9266C225.702 99.9266 229.447 100.785 231.743 102.503C234.038 104.106 235.186 107.255 235.186 111.949V182.711Z"
      fill="#0C2716"
    />
    <path
      fill-rule="evenodd"
      clip-rule="evenodd"
      d="M300.148 185.459C295.557 185.459 291.449 184.886 287.825 183.741C286.424 183.343 285.095 182.919 283.838 182.469V213.454C282.63 213.798 280.938 214.141 278.763 214.485C276.589 214.828 274.233 215 271.696 215C266.621 215 262.876 214.141 260.46 212.424C258.164 210.706 257.016 207.557 257.016 202.977V117.617C257.016 114.754 257.621 112.407 258.829 110.575C260.037 108.629 261.91 106.911 264.447 105.423C268.071 103.247 272.662 101.472 278.22 100.098C283.777 98.6098 289.999 97.8655 296.886 97.8655C306.189 97.8655 314.404 99.4113 321.533 102.503C328.782 105.48 334.4 110.174 338.387 116.586C342.374 122.884 344.367 131.071 344.367 141.147C344.367 150.879 342.434 159.009 338.568 165.536C334.702 172.062 329.446 177.043 322.801 180.478C316.156 183.798 308.605 185.459 300.148 185.459ZM285.831 163.131C285.078 162.774 284.353 162.409 283.657 162.037V121.224C285.227 120.308 287.1 119.563 289.275 118.991C291.57 118.304 294.107 117.96 296.886 117.96C300.994 117.96 304.558 118.762 307.578 120.365C310.599 121.968 312.894 124.487 314.465 127.922C316.156 131.243 317.002 135.651 317.002 141.147C317.002 149.162 315.129 155.173 311.384 159.181C307.76 163.188 302.625 165.192 295.98 165.192C292.235 165.192 288.852 164.505 285.831 163.131Z"
      fill="#0C2716"
    />
    <path
      d="M161.192 122.598C163.729 121.224 166.81 120.136 170.435 119.334C174.059 118.533 177.684 118.132 181.308 118.132C183.362 118.132 185.235 118.247 186.926 118.476C188.738 118.59 190.249 118.762 191.457 118.991C192.182 117.846 192.786 116.472 193.269 114.869C193.873 113.266 194.175 111.548 194.175 109.716C194.175 101.93 188.013 98.0373 175.69 98.0373C169.528 98.0373 163.608 98.7243 157.93 100.098C152.372 101.358 147.6 103.133 143.613 105.423C140.714 107.14 138.418 109.144 136.727 111.434C135.156 113.609 134.371 116.3 134.371 119.506V172.234C134.371 176.699 135.519 179.791 137.814 181.508C140.23 183.226 143.976 184.085 149.05 184.085C151.587 184.085 153.943 183.913 156.118 183.569C158.292 183.34 159.984 183.054 161.192 182.711V122.598Z"
      fill="#0C2716"
    />
    <path
      d="M90.4009 155.918C90.4009 159.124 91.4883 161.471 93.663 162.959C95.8377 164.448 98.9185 165.192 102.905 165.192C104.718 165.192 106.651 165.02 108.705 164.677C110.879 164.219 112.692 163.704 114.141 163.131C115.108 164.162 115.954 165.421 116.679 166.91C117.524 168.398 117.947 170.116 117.947 172.062C117.947 175.955 116.256 179.161 112.873 181.68C109.49 184.199 103.812 185.459 95.8377 185.459C85.6891 185.459 77.7756 183.283 72.0972 178.932C66.5396 174.581 63.7608 167.482 63.7608 157.635V80.1751C64.969 79.8316 66.6604 79.4881 68.8351 79.1446C71.0098 78.6866 73.3053 78.4576 75.7217 78.4576C80.9168 78.4576 84.6621 79.3164 86.9577 81.0339C89.2532 82.7514 90.4009 85.9002 90.4009 90.4802V102.331H115.591C116.195 103.247 116.799 104.564 117.404 106.281C118.008 107.999 118.31 109.888 118.31 111.949C118.31 115.384 117.464 117.903 115.772 119.506C114.202 121.109 112.027 121.911 109.248 121.911H90.4009V155.918Z"
      fill="#0C2716"
    />
    <path
      d="M410.727 185.802C400.82 185.802 392.302 184.142 385.174 180.821C378.167 177.386 372.73 172.635 368.864 166.566C365.118 160.498 363.246 153.398 363.246 145.269V78.4576C364.575 78.2286 366.447 77.9424 368.864 77.5989C371.28 77.2554 373.696 77.0836 376.113 77.0836C381.308 77.0836 385.053 77.9424 387.349 79.6599C389.765 81.3774 390.973 84.6407 390.973 89.4497V144.582C390.973 150.879 392.785 155.803 396.41 159.353C400.155 162.788 404.927 164.505 410.727 164.505C416.526 164.505 421.238 162.788 424.862 159.353C428.608 155.803 430.48 150.879 430.48 144.582V78.4576C431.809 78.2286 433.682 77.9424 436.098 77.5989C438.635 77.2554 441.052 77.0836 443.347 77.0836C448.542 77.0836 452.288 77.9424 454.583 79.6599C457 81.3774 458.208 84.6407 458.208 89.4497V145.269C458.208 153.398 456.335 160.498 452.59 166.566C448.844 172.635 443.408 177.386 436.279 180.821C429.151 184.142 420.634 185.802 410.727 185.802Z"
      fill="#0C2716"
    />
    <path
      d="M621.761 182.711V89.4497C621.761 84.6407 620.613 81.3774 618.318 79.6599C616.022 77.9424 612.277 77.0836 607.082 77.0836C604.665 77.0836 602.188 77.2554 599.651 77.5989C597.235 77.9424 595.423 78.2286 594.215 78.4576V171.719C594.215 176.299 595.302 179.505 597.477 181.337C599.772 183.169 603.638 184.085 609.075 184.085C611.612 184.085 614.089 183.913 616.505 183.569C618.922 183.34 620.673 183.054 621.761 182.711Z"
      fill="#0C2716"
    />
    <path
      fill-rule="evenodd"
      clip-rule="evenodd"
      d="M506.739 159.696C506.349 160.922 505.96 162.182 505.57 163.475C504.966 165.879 504.301 168.226 503.576 170.516C502.852 172.806 502.187 174.982 501.583 177.043C500.979 179.104 500.375 181.05 499.771 182.882C498.442 183.226 496.931 183.569 495.24 183.913C493.549 184.371 491.555 184.6 489.26 184.6C484.185 184.6 480.319 183.741 477.661 182.024C475.003 180.306 473.674 177.787 473.674 174.467C473.674 173.093 473.855 171.661 474.218 170.173C474.701 168.684 475.245 166.967 475.849 165.02C476.936 161.242 478.447 156.49 480.38 150.765C482.433 145.04 484.608 138.857 486.904 132.216C489.32 125.46 491.736 118.819 494.153 112.293C496.69 105.766 498.985 99.7548 501.039 94.2588C503.214 88.7627 504.966 84.4689 506.295 81.3774C507.986 80.3469 510.644 79.4309 514.269 78.6294C518.014 77.7134 521.699 77.2554 525.323 77.2554C530.519 77.2554 535.17 77.9996 539.278 79.4881C543.386 80.8621 545.983 83.0949 547.07 86.1864C549.366 92.255 551.843 99.2968 554.501 107.312C557.28 115.212 560.058 123.514 562.837 132.216C565.616 140.918 568.274 149.391 570.811 157.635C573.469 165.765 575.765 173.093 577.698 179.619C576.369 180.993 574.436 182.138 571.898 183.054C569.361 184.085 566.341 184.6 562.837 184.6C557.884 184.6 554.38 183.741 552.326 182.024C550.272 180.306 548.702 177.73 547.614 174.295L543.213 159.696H506.739ZM525.142 100.442H526.23C527.317 103.762 528.525 107.598 529.854 111.949C531.183 116.186 532.633 120.708 534.203 125.518C535.669 130.005 537.082 134.643 538.443 139.429H511.57C512.966 135.193 514.41 130.956 515.9 126.72C517.591 121.796 519.222 117.102 520.793 112.636C522.484 108.171 523.934 104.106 525.142 100.442Z"
      fill="#0C2716"
    />
  </mask>
  <g mask="url(#mask0_6_42)">
    <g filter="url(#filter1_f_6_42)">
      <path
        d="M557.318 197.367C557.318 329.162 331.429 684.116 246.107 385.52C160.785 86.9245 -65.1035 329.162 -65.1035 197.367C-65.1035 65.5723 196.489 -187.295 246.107 9.21402C295.725 205.723 557.318 65.5723 557.318 197.367Z"
        fill="#366346"
      />
    </g>
    <g filter="url(#filter2_f_6_42)">
      <path
        d="M658.836 165.778C658.836 289.6 467.226 133.055 381.099 342.549C294.973 552.044 37.7165 -69.1832 103.363 165.778C169.01 400.739 336.818 -195.615 381.099 -10.993C425.38 173.629 658.836 41.9559 658.836 165.778Z"
        fill="#FF9233"
      />
    </g>
    <g filter="url(#filter3_f_6_42)">
      <path
        d="M938.591 189.376C938.591 313.198 746.98 156.653 660.854 366.147C574.727 575.641 541.568 208.44 383.118 189.376C224.668 170.312 616.573 -172.017 660.854 12.6049C705.135 197.227 938.591 65.5539 938.591 189.376Z"
        fill="#EB4747"
      />
    </g>
  </g>
  <defs>
    <filter
      id="filter0_f_6_42"
      x="0.760803"
      y="0"
      width="684"
      height="278"
      filterUnits="userSpaceOnUse"
      color-interpolation-filters="sRGB"
    >
      <feFlood flood-opacity="0" result="BackgroundImageFix" />
      <feBlend
        mode="normal"
        in="SourceGraphic"
        in2="BackgroundImageFix"
        result="shape"
      />
      <feGaussianBlur
        stdDeviation="12.5"
        result="effect1_foregroundBlur_6_42"
      />
    </filter>
    <filter
      id="filter1_f_6_42"
      x="-225.103"
      y="-222.961"
      width="942.421"
      height="884.835"
      filterUnits="userSpaceOnUse"
      color-interpolation-filters="sRGB"
    >
      <feFlood flood-opacity="0" result="BackgroundImageFix" />
      <feBlend
        mode="normal"
        in="SourceGraphic"
        in2="BackgroundImageFix"
        result="shape"
      />
      <feGaussianBlur stdDeviation="80" result="effect1_foregroundBlur_6_42" />
    </filter>
    <filter
      id="filter2_f_6_42"
      x="-67.2374"
      y="-207.045"
      width="886.073"
      height="753.491"
      filterUnits="userSpaceOnUse"
      color-interpolation-filters="sRGB"
    >
      <feFlood flood-opacity="0" result="BackgroundImageFix" />
      <feBlend
        mode="normal"
        in="SourceGraphic"
        in2="BackgroundImageFix"
        result="shape"
      />
      <feGaussianBlur stdDeviation="80" result="effect1_foregroundBlur_6_42" />
    </filter>
    <filter
      id="filter3_f_6_42"
      x="185.598"
      y="-201.866"
      width="912.992"
      height="792.392"
      filterUnits="userSpaceOnUse"
      color-interpolation-filters="sRGB"
    >
      <feFlood flood-opacity="0" result="BackgroundImageFix" />
      <feBlend
        mode="normal"
        in="SourceGraphic"
        in2="BackgroundImageFix"
        result="shape"
      />
      <feGaussianBlur stdDeviation="80" result="effect1_foregroundBlur_6_42" />
    </filter>
  </defs>
</svg>
